<svg width="116" height="21" viewBox="0 0 116 21" fill="none" xmlns="http://www.w3.org/2000/svg">
<path d="M31.2859 17.0713V16.7544H31.4168V16.6923H31.0928V16.7544H31.2236V17.0713H31.2922H31.2859ZM31.9153 17.0713V16.6923H31.8156L31.7034 16.9532L31.5912 16.6923H31.4916V17.0713H31.5601V16.7855L31.666 17.034H31.7408L31.8467 16.7855V17.0713H31.9153Z" fill="white"/>
<path d="M22.3694 1.20393C20.0764 1.20393 17.9703 1.99308 16.3004 3.31039C14.6305 1.99929 12.5245 1.20393 10.2315 1.20393C4.80432 1.20393 0.405273 5.59084 0.405273 11.003C0.405273 16.4152 4.79809 20.7959 10.2252 20.7959C12.5182 20.7959 14.6243 20.0068 16.2942 18.6894C17.9703 20.0068 20.0764 20.7959 22.3694 20.7959C27.7965 20.7959 32.1956 16.409 32.1956 10.9968C32.1956 5.58463 27.7965 1.19772 22.3694 1.19772V1.20393Z" fill="white"/>
<path d="M12.543 11.0011C12.543 7.87555 14.0135 5.09179 16.2941 3.29601C14.6242 1.98491 12.5119 1.20198 10.2251 1.20198C4.79797 1.20198 0.398926 5.58889 0.398926 11.0011C0.398926 16.4132 4.79797 20.7939 10.2251 20.7939C12.5181 20.7939 14.6242 20.011 16.2941 18.6999C14.0073 16.9041 12.543 14.1204 12.543 10.9949V11.0011Z" fill="#DF1612" stroke="#DF1612" stroke-width="0.25" stroke-miterlimit="10"/>
<path d="M32.1954 11.0036C32.1954 16.4158 27.7964 20.8027 22.3692 20.8027C20.0762 20.8027 17.9702 20.0198 16.3003 18.7087C18.5871 16.9129 20.0513 14.1292 20.0513 11.0036C20.0513 7.87812 18.5871 5.09436 16.3003 3.29859C17.9702 1.98748 20.0825 1.20455 22.3692 1.20455C27.7964 1.20455 32.1954 5.59146 32.1954 11.0036Z" fill="#F59E00" stroke="#F59E00" stroke-width="0.25" stroke-miterlimit="10"/>
<path d="M20.5933 3.29785H11.9946V18.7017H20.5933V3.29785Z" fill="#F8C4AE"/>
<path d="M12.543 11.003C12.543 7.8775 14.0135 5.09374 16.2941 3.29796C14.6242 1.98686 12.5119 1.20393 10.2251 1.20393C4.79797 1.20393 0.398926 5.59084 0.398926 11.003C0.398926 16.4152 4.79797 20.7959 10.2251 20.7959C12.5181 20.7959 14.6242 20.013 16.2941 18.7019C14.0073 16.9061 12.543 14.1223 12.543 10.9968V11.003Z" fill="#DF1612"/>
<path d="M32.1954 11.0036C32.1954 16.4158 27.7964 20.8027 22.3692 20.8027C20.0762 20.8027 17.9702 20.0198 16.3003 18.7087C18.5871 16.9129 20.0513 14.1292 20.0513 11.0036C20.0513 7.87812 18.5871 5.09436 16.3003 3.29859C17.9702 1.98748 20.0825 1.20455 22.3692 1.20455C27.7964 1.20455 32.1954 5.59146 32.1954 11.0036Z" fill="#F59E00"/>
<g style="mix-blend-mode:multiply">
<path d="M20.0514 11.0049C20.0514 7.87939 18.5871 5.09562 16.3003 3.29985C14.0136 5.09562 12.5493 7.87939 12.5493 11.0049C12.5493 14.1304 14.0198 16.9142 16.3003 18.71C18.5871 16.9142 20.0514 14.1304 20.0514 11.0049Z" fill="#F59E00" stroke="#F59E00" stroke-width="0.25" stroke-miterlimit="10"/>
</g>
<path d="M41.3989 1.19727V20.1973" stroke="black" stroke-linecap="round"/>
<path d="M51.9669 17.1977H50.7349V5.99773H51.9669V17.1977Z" fill="#2A2B2F"/>
<path d="M59.2335 5.99773C60.0602 5.99773 60.7988 6.12573 61.4495 6.38173C62.1055 6.63773 62.6602 7.0084 63.1135 7.49373C63.5722 7.97373 63.9215 8.5604 64.1615 9.25373C64.4068 9.94707 64.5295 10.7284 64.5295 11.5977C64.5295 12.4671 64.4068 13.2484 64.1615 13.9417C63.9215 14.6351 63.5722 15.2244 63.1135 15.7097C62.6602 16.1897 62.1055 16.5577 61.4495 16.8137C60.7988 17.0697 60.0602 17.1977 59.2335 17.1977H55.5855V5.99773H59.2335ZM59.2255 16.0377C59.8868 16.0377 60.4682 15.9364 60.9695 15.7337C61.4708 15.5257 61.8895 15.2324 62.2255 14.8537C62.5668 14.4697 62.8228 14.0031 62.9935 13.4537C63.1642 12.9044 63.2495 12.2857 63.2495 11.5977C63.2495 10.9097 63.1642 10.2911 62.9935 9.74173C62.8228 9.1924 62.5668 8.72573 62.2255 8.34173C61.8895 7.95773 61.4708 7.6644 60.9695 7.46173C60.4682 7.25907 59.8868 7.15773 59.2255 7.15773H56.8175V16.0377H59.2255Z" fill="#2A2B2F"/>
<path d="M76.7042 5.86173C77.1416 5.86173 77.5602 5.91773 77.9602 6.02973C78.3656 6.1364 78.7389 6.29107 79.0802 6.49373C79.4269 6.6964 79.7362 6.94707 80.0082 7.24573C80.2856 7.5444 80.5176 7.8804 80.7042 8.25373L79.6562 8.85373C79.3522 8.28307 78.9442 7.84307 78.4322 7.53373C77.9202 7.21907 77.3442 7.06173 76.7042 7.06173C76.1709 7.06173 75.6776 7.16573 75.2242 7.37373C74.7762 7.58173 74.3869 7.8804 74.0562 8.26973C73.7256 8.65907 73.4669 9.13373 73.2802 9.69374C73.0936 10.2537 73.0002 10.8884 73.0002 11.5977C73.0002 12.3124 73.0936 12.9497 73.2802 13.5097C73.4669 14.0697 73.7256 14.5444 74.0562 14.9337C74.3869 15.3231 74.7789 15.6217 75.2322 15.8297C75.6856 16.0324 76.1762 16.1337 76.7042 16.1337C77.3442 16.1337 77.9176 15.9791 78.4242 15.6697C78.9362 15.3604 79.3469 14.9204 79.6562 14.3497L80.6802 14.9817C80.4882 15.3497 80.2536 15.6804 79.9762 15.9737C79.7042 16.2617 79.3976 16.5071 79.0562 16.7097C78.7149 16.9071 78.3469 17.0591 77.9522 17.1657C77.5576 17.2724 77.1416 17.3257 76.7042 17.3257C75.9736 17.3257 75.3016 17.1924 74.6882 16.9257C74.0802 16.6537 73.5549 16.2697 73.1122 15.7737C72.6749 15.2777 72.3336 14.6777 72.0882 13.9737C71.8429 13.2644 71.7202 12.4724 71.7202 11.5977C71.7202 10.7231 71.8429 9.93373 72.0882 9.22973C72.3336 8.5204 72.6749 7.91773 73.1122 7.42173C73.5549 6.9204 74.0802 6.5364 74.6882 6.26973C75.3016 5.99773 75.9736 5.86173 76.7042 5.86173Z" fill="#2A2B2F"/>
<path d="M86.9482 9.46973C87.3536 9.46973 87.7242 9.53373 88.0602 9.66173C88.3962 9.78973 88.6842 9.97373 88.9242 10.2137C89.1642 10.4537 89.3482 10.7444 89.4762 11.0857C89.6096 11.4271 89.6762 11.8084 89.6762 12.2297V17.1977H88.5322V12.5577C88.5322 11.9284 88.3642 11.4404 88.0282 11.0937C87.6976 10.7417 87.2336 10.5657 86.6362 10.5657C86.3589 10.5657 86.1002 10.6137 85.8602 10.7097C85.6202 10.8057 85.4096 10.9444 85.2282 11.1257C85.0522 11.3017 84.9136 11.5151 84.8122 11.7657C84.7109 12.0164 84.6602 12.2964 84.6602 12.6057V17.1977H83.5162V5.67773H84.6602V10.5417C84.9322 10.1684 85.2682 9.8964 85.6682 9.72573C86.0736 9.55507 86.5002 9.46973 86.9482 9.46973Z" fill="#2A2B2F"/>
<path d="M98.9781 13.3897C98.9781 13.5444 98.9701 13.6857 98.9541 13.8137H93.5941C93.6261 14.2244 93.7061 14.5844 93.8341 14.8937C93.9674 15.2031 94.1354 15.4617 94.3381 15.6697C94.5461 15.8777 94.7861 16.0351 95.0581 16.1417C95.3301 16.2431 95.6261 16.2937 95.9461 16.2937C96.3781 16.2937 96.7674 16.2137 97.1141 16.0537C97.4661 15.8884 97.7808 15.6697 98.0581 15.3977L98.6741 16.1897C98.4661 16.4031 98.2501 16.5817 98.0261 16.7257C97.8021 16.8697 97.5728 16.9871 97.3381 17.0777C97.1034 17.1631 96.8634 17.2244 96.6181 17.2617C96.3728 17.3044 96.1221 17.3257 95.8661 17.3257C95.3488 17.3257 94.8768 17.2351 94.4501 17.0537C94.0288 16.8724 93.6661 16.6111 93.3621 16.2697C93.0581 15.9284 92.8234 15.5177 92.6581 15.0377C92.4928 14.5524 92.4101 14.0084 92.4101 13.4057C92.4101 12.8084 92.4928 12.2671 92.6581 11.7817C92.8234 11.2964 93.0528 10.8831 93.3461 10.5417C93.6448 10.2004 93.9994 9.9364 94.4101 9.74973C94.8261 9.56307 95.2821 9.46973 95.7781 9.46973C96.2474 9.46973 96.6768 9.56307 97.0661 9.74973C97.4608 9.93107 97.7994 10.1924 98.0821 10.5337C98.3648 10.8751 98.5834 11.2884 98.7381 11.7737C98.8981 12.2537 98.9781 12.7924 98.9781 13.3897ZM97.8101 12.8537C97.7834 12.4964 97.7141 12.1737 97.6021 11.8857C97.4954 11.5977 97.3514 11.3524 97.1701 11.1497C96.9941 10.9471 96.7861 10.7897 96.5461 10.6777C96.3114 10.5657 96.0501 10.5097 95.7621 10.5097C95.4581 10.5097 95.1808 10.5657 94.9301 10.6777C94.6848 10.7844 94.4688 10.9391 94.2821 11.1417C94.1008 11.3444 93.9514 11.5897 93.8341 11.8777C93.7221 12.1657 93.6474 12.4911 93.6101 12.8537H97.8101Z" fill="#2A2B2F"/>
<path d="M104.756 9.46973C105.273 9.46973 105.748 9.57373 106.18 9.78173C106.612 9.9844 106.977 10.2777 107.276 10.6617L106.516 11.3977C106.276 11.1311 106.009 10.9257 105.716 10.7817C105.428 10.6377 105.105 10.5657 104.748 10.5657C104.417 10.5657 104.113 10.6324 103.836 10.7657C103.559 10.8937 103.316 11.0804 103.108 11.3257C102.905 11.5711 102.745 11.8697 102.628 12.2217C102.516 12.5684 102.46 12.9604 102.46 13.3977C102.46 13.8351 102.516 14.2297 102.628 14.5817C102.745 14.9284 102.905 15.2244 103.108 15.4697C103.316 15.7151 103.559 15.9044 103.836 16.0377C104.113 16.1711 104.417 16.2377 104.748 16.2377C105.105 16.2377 105.433 16.1631 105.732 16.0137C106.036 15.8591 106.303 15.6537 106.532 15.3977L107.276 16.1337C106.972 16.5177 106.604 16.8137 106.172 17.0217C105.745 17.2244 105.273 17.3257 104.756 17.3257C104.239 17.3257 103.767 17.2324 103.34 17.0457C102.913 16.8537 102.548 16.5844 102.244 16.2377C101.94 15.8911 101.705 15.4777 101.54 14.9977C101.375 14.5177 101.292 13.9844 101.292 13.3977C101.292 12.8164 101.375 12.2857 101.54 11.8057C101.705 11.3204 101.94 10.9044 102.244 10.5577C102.548 10.2111 102.913 9.9444 103.34 9.75773C103.767 9.56573 104.239 9.46973 104.756 9.46973Z" fill="#2A2B2F"/>
<path d="M112.008 13.7577H111.056V17.1977H109.912V5.67773H111.056V12.6777H112.024L114.544 9.60573H115.944L112.92 13.1897L116 17.1977H114.6L112.008 13.7577Z" fill="#2A2B2F"/>
</svg>
