<svg width="154" height="22" viewBox="0 0 154 22" fill="none" xmlns="http://www.w3.org/2000/svg">
<path fill-rule="evenodd" clip-rule="evenodd" d="M56.4542 7.19741C57.2751 7.19741 57.9553 6.54069 57.9553 5.7198C57.9553 4.8989 57.2751 4.24219 56.4542 4.24219C55.6333 4.24219 54.9532 4.8989 54.9532 5.7198C54.9532 6.54069 55.6099 7.19741 56.4542 7.19741ZM53.3583 8.08867H50.5203V5.50871L48.1046 5.53217V13.7411C48.1046 15.1015 48.4095 16.0162 48.9958 16.5322C49.5822 17.0247 50.3093 17.2827 51.1771 17.2827H53.3348V15.2187H51.5992C51.1301 15.2187 50.4969 15.078 50.4969 13.8584V10.223H53.3348V8.08867H53.3583ZM41.9596 7.78377C42.8743 7.78377 43.6952 7.99485 44.4223 8.44048C45.1493 8.86266 45.7357 9.47246 46.1344 10.1995C46.5566 10.9266 46.7442 11.7475 46.7442 12.6388C46.7442 13.53 46.5331 14.3509 46.1344 15.078C45.7122 15.8051 45.1493 16.4149 44.4223 16.8371C43.6952 17.2592 42.8508 17.4938 41.9596 17.4938C41.0683 17.4938 40.2474 17.2827 39.5203 16.8371C38.7933 16.4149 38.2069 15.8051 37.8082 15.078C37.386 14.3509 37.1984 13.53 37.1984 12.6388C37.1984 11.771 37.4095 10.9501 37.8082 10.1995C38.2304 9.47246 38.7933 8.86266 39.5203 8.44048C40.224 7.99485 41.0449 7.78377 41.9596 7.78377ZM41.983 15.1718C42.4287 15.1718 42.8508 15.0546 43.2026 14.8435C43.5545 14.6324 43.8594 14.3275 44.0704 13.9288C44.2815 13.53 44.3754 13.0844 44.3754 12.5919C44.3754 12.0993 44.2581 11.6537 44.0704 11.255C43.8594 10.8563 43.5779 10.5514 43.2026 10.3403C42.8508 10.1292 42.4287 10.0119 41.983 10.0119C41.5374 10.0119 41.1152 10.1292 40.7634 10.3403C40.3881 10.5514 40.1067 10.8797 39.8956 11.255C39.6845 11.6537 39.5907 12.0759 39.5907 12.5919C39.5907 13.0844 39.708 13.53 39.8956 13.9288C40.1067 14.304 40.3881 14.6324 40.7634 14.8435C41.1152 15.078 41.5139 15.1718 41.983 15.1718ZM57.6504 8.08867H55.2346V17.2358H57.6504V8.08867ZM73.1301 17.2592H70.7613V11.9117C70.7613 11.3488 70.6206 10.8797 70.3391 10.5748C70.0577 10.2699 69.6824 10.1057 69.1664 10.1057C68.6739 10.1057 68.2986 10.2699 68.0171 10.5748C67.7357 10.8797 67.595 11.3488 67.595 11.9117V17.2592H65.2026V11.9117C65.2026 11.3488 65.0619 10.8797 64.7805 10.5748C64.499 10.2699 64.1238 10.1057 63.6078 10.1057C63.0918 10.1057 62.74 10.2699 62.4585 10.5748C62.1771 10.8797 62.0363 11.3488 62.0363 11.9117V17.2592H59.6675V11.9117C59.6675 10.6686 59.9958 9.68355 60.676 8.97993C61.3562 8.2763 62.3412 7.92449 63.6312 7.92449C65.0619 7.92449 65.9532 8.62812 66.2112 8.8392L66.4457 9.05029L66.7272 8.8392C67.4073 8.29976 68.322 7.94794 69.1899 7.92449C70.4564 7.90104 71.4884 8.2763 72.1685 9.02684C72.8252 9.73046 73.1536 10.7155 73.1536 11.9352V17.2592H73.1301ZM34.6888 10.7624C35.3924 10.1526 35.7677 9.28483 35.7677 8.29976C35.7677 6.30615 34.1259 4.75818 32.0619 4.75818H26.6909V17.2592H32.789C34.3604 17.2592 35.7208 16.2038 36.096 14.7027C36.5417 13.014 36.0022 11.5599 34.6888 10.7624ZM29.0363 6.98632V9.82428H32.0854C32.8828 9.82428 33.4692 9.21447 33.4692 8.39357C33.4692 7.57268 32.8828 6.96287 32.0854 6.96287H29.0363V6.98632ZM32.4606 15.0311C33.305 15.0311 33.9148 14.3744 33.9148 13.5066C33.9148 12.6388 33.2815 11.9821 32.4606 11.9821H29.0363V15.0311H32.4606Z" fill="#010201"/>
<path d="M16.2537 0.279297H5.0661C2.27505 0.279297 0 2.55435 0 5.36885V16.6034C0 19.4179 2.27505 21.6929 5.0661 21.6929H16.2772C19.0682 21.6929 21.3433 19.4179 21.3433 16.6034V5.3923C21.3433 2.5778 19.0682 0.279297 16.2537 0.279297Z" fill="#4FB1F3"/>
<path d="M12.4306 19.0446H9.80376C6.356 19.0446 3.5415 16.2301 3.5415 12.7589V4.80791C3.5415 3.82283 4.33895 3.02539 5.32402 3.02539C6.30909 3.02539 7.10654 3.82283 7.10654 4.80791V12.7589C7.10654 14.2599 8.32615 15.4561 9.80376 15.4561H12.4306C13.9082 15.4561 15.1279 14.2599 15.1279 12.7823C15.1279 11.3047 13.9082 10.1085 12.4306 10.1085H10.7419C9.75686 10.1085 8.95941 9.3111 8.95941 8.32603C8.95941 7.34096 9.75686 6.54351 10.7419 6.54351H12.4072C15.8549 6.54351 18.6694 9.35801 18.6694 12.8058C18.6929 16.2535 15.8784 19.0446 12.4306 19.0446Z" fill="white" fill-opacity="0.45"/>
<path d="M5.34746 6.54159C6.33253 6.54159 7.12997 5.74415 7.12997 4.75908C7.12997 3.774 6.33253 2.97656 5.34746 2.97656C4.36238 2.97656 3.56494 3.774 3.56494 4.75908C3.56494 5.74415 4.36238 6.54159 5.34746 6.54159Z" fill="white"/>
<path d="M10.6717 10.108C11.6568 10.108 12.4542 9.31056 12.4542 8.32548C12.4542 7.34041 11.6568 6.54297 10.6717 6.54297C9.6866 6.54297 8.88916 7.34041 8.88916 8.32548C8.88916 9.31056 9.6866 10.108 10.6717 10.108Z" fill="white"/>
<path d="M82.6994 12.0093L85.2324 9.49974C85.3497 9.38247 85.3966 9.24174 85.3966 9.07756C85.3966 8.91339 85.3262 8.77266 85.2324 8.65539C85.1152 8.53812 84.9744 8.49121 84.8102 8.49121C84.6461 8.49121 84.5053 8.56157 84.3881 8.65539L81.8785 11.1884L79.3689 8.65539C79.2516 8.53812 79.1109 8.49121 78.9467 8.49121C78.7825 8.49121 78.6418 8.56157 78.5245 8.65539C78.4073 8.77266 78.3604 8.91339 78.3604 9.07756C78.3604 9.24174 78.4307 9.38247 78.5245 9.49974L81.0576 12.0093L78.5245 14.5189C78.4776 14.5658 78.4307 14.6362 78.4073 14.7066C78.3838 14.7769 78.3604 14.8473 78.3604 14.9411C78.3604 15.0349 78.3838 15.1053 78.4073 15.1756C78.4307 15.246 78.4776 15.3164 78.5245 15.3633C78.5714 15.4102 78.6418 15.4571 78.7122 15.4805C78.7825 15.504 78.8529 15.5275 78.9467 15.5275C79.0171 15.5275 79.1109 15.504 79.1812 15.4805C79.2516 15.4571 79.322 15.4102 79.3689 15.3633L81.8785 12.8302L84.3881 15.3633C84.435 15.4102 84.5053 15.4571 84.5757 15.4805C84.6461 15.504 84.7164 15.5275 84.8102 15.5275C84.8806 15.5275 84.9744 15.504 85.0448 15.4805C85.1151 15.4571 85.1855 15.4102 85.2324 15.3633C85.2793 15.3164 85.3262 15.246 85.3497 15.1756C85.3731 15.1053 85.3966 15.0349 85.3966 14.9411C85.3966 14.8473 85.3731 14.7769 85.3497 14.7066C85.3262 14.6362 85.2793 14.5658 85.2324 14.5189L82.6994 12.0093Z" fill="#80868B"/>
<path fill-rule="evenodd" clip-rule="evenodd" d="M97.9681 0V18.177H94.8252V3.14286L97.9681 0ZM143 7.8806C142.461 7.3177 141.64 7.0597 140.537 7.0597H135.237V18.2004H140.983C141.546 18.2004 142.038 18.1301 142.461 17.9659C142.883 17.8017 143.235 17.5906 143.516 17.3326C143.798 17.0512 144.009 16.7463 144.149 16.371C144.29 15.9957 144.36 15.597 144.36 15.1514C144.36 14.4947 144.196 13.9318 143.868 13.4627C143.54 12.9936 143.094 12.6418 142.484 12.4307V12.4073C142.906 12.1727 143.258 11.8678 143.493 11.4456C143.727 11.0235 143.844 10.5544 143.844 10.0149C143.821 9.12367 143.54 8.42004 143 7.8806ZM121.469 9.54584C122.126 9.54584 122.736 9.63966 123.299 9.85075C123.861 10.0618 124.331 10.3667 124.729 10.7655C125.128 11.1642 125.433 11.6333 125.644 12.1962C125.855 12.7591 125.972 13.3689 125.972 14.0725V18.2004H123.627V16.887H123.603C123.392 17.3561 123.064 17.7313 122.618 18.0128C122.173 18.2942 121.633 18.435 121 18.435C120.554 18.435 120.085 18.3412 119.616 18.177C119.147 18.0128 118.702 17.7313 118.303 17.3795C117.904 17.0277 117.576 16.5586 117.341 15.9957C117.083 15.4328 116.966 14.7761 116.966 13.9787C116.966 13.3454 117.083 12.7591 117.294 12.1962C117.505 11.6567 117.834 11.1876 118.232 10.7889C118.631 10.3902 119.124 10.0853 119.663 9.8742C120.203 9.66311 120.812 9.54584 121.469 9.54584ZM147.339 14.0021V9.78039H144.783V14.0021C144.783 14.7761 144.9 15.4328 145.111 15.9723C145.322 16.5117 145.603 16.9574 145.955 17.2857C146.307 17.6375 146.706 17.8721 147.128 18.0362C147.574 18.2004 147.996 18.2708 148.441 18.2708C148.887 18.2708 149.286 18.177 149.638 17.9893C149.989 17.8017 150.271 17.5437 150.505 17.2154H150.529V17.9893C150.529 18.6461 150.412 19.0917 150.154 19.3731C149.896 19.6546 149.497 19.7953 148.911 19.7953C148.512 19.7953 148.183 19.7249 147.949 19.6077C147.714 19.4904 147.527 19.2793 147.409 18.9979H144.853C144.947 19.5139 145.134 19.9595 145.392 20.3348C145.65 20.71 145.955 21.0149 146.307 21.2729C146.659 21.5075 147.058 21.6951 147.527 21.8124C147.972 21.9296 148.441 22 148.957 22C149.544 22 150.083 21.9296 150.576 21.7655C151.092 21.6013 151.514 21.3667 151.889 21.0384C152.264 20.71 152.569 20.2878 152.78 19.7719C152.992 19.2559 153.109 18.6226 153.109 17.8955V9.75693H150.552V13.9787C150.552 14.6354 150.412 15.1045 150.107 15.4094C149.802 15.7143 149.427 15.8785 148.957 15.8785C148.488 15.8785 148.09 15.7377 147.808 15.4328C147.503 15.1514 147.339 14.6589 147.339 14.0021ZM128.998 14.0021V9.78039H126.441V14.0021C126.441 14.7761 126.559 15.4328 126.77 15.9723C126.981 16.5117 127.262 16.9574 127.614 17.2857C127.966 17.6375 128.365 17.8721 128.787 18.0362C129.232 18.2004 129.655 18.2708 130.1 18.2708C130.546 18.2708 130.945 18.177 131.296 17.9893C131.648 17.8017 131.93 17.5437 132.164 17.2154H132.188V17.9893C132.188 18.6461 132.07 19.0917 131.812 19.3731C131.554 19.6546 131.156 19.7953 130.569 19.7953C130.171 19.7953 129.842 19.7249 129.608 19.6077C129.373 19.4904 129.186 19.2793 129.068 18.9979H126.512C126.606 19.5139 126.793 19.9595 127.051 20.3348C127.309 20.71 127.614 21.0149 127.966 21.2729C128.318 21.5075 128.717 21.6951 129.186 21.8124C129.631 21.9296 130.1 22 130.616 22C131.203 22 131.742 21.9296 132.235 21.7655C132.751 21.6013 133.173 21.3667 133.548 21.0384C133.923 20.71 134.228 20.2878 134.439 19.7719C134.65 19.2559 134.768 18.6226 134.768 17.8955V9.78039H132.211V14.0021C132.211 14.6589 132.07 15.1279 131.766 15.4328C131.461 15.7377 131.085 15.9019 130.616 15.9019C130.147 15.9019 129.748 15.7612 129.467 15.4563C129.162 15.1514 128.998 14.6589 128.998 14.0021ZM93.7698 18.177V4.31557L90.627 7.45842V18.177H93.7698ZM102.166 4.31557V18.177H99.0235V7.48188L102.166 4.31557ZM114.503 7.3177C113.964 7.13007 113.307 7.03625 112.533 7.03625H108.147V18.177H110.915V14.8934H112.533C113.284 14.8934 113.94 14.7996 114.503 14.5885C115.043 14.4009 115.512 14.1194 115.864 13.7676C116.215 13.4158 116.497 13.0171 116.661 12.5245C116.825 12.032 116.919 11.516 116.919 10.9531C116.919 10.3902 116.825 9.85075 116.661 9.38166C116.497 8.91258 116.215 8.49041 115.864 8.13859C115.512 7.78678 115.066 7.50533 114.503 7.3177ZM121.493 11.9382C120.906 11.9382 120.437 12.1258 120.085 12.5011C119.734 12.8763 119.546 13.3689 119.546 13.9787C119.546 14.5885 119.734 15.081 120.085 15.4563C120.437 15.8316 120.906 16.0192 121.493 16.0192C122.079 16.0192 122.548 15.8316 122.9 15.4563C123.252 15.081 123.439 14.5885 123.439 13.9787C123.439 13.3689 123.252 12.8763 122.9 12.5011C122.525 12.1258 122.056 11.9382 121.493 11.9382ZM138.004 13.6503H140.42C140.772 13.6503 141.053 13.7441 141.241 13.9552C141.429 14.1429 141.499 14.4009 141.499 14.6588C141.499 14.9403 141.429 15.1748 141.264 15.3625C141.1 15.5501 140.819 15.6439 140.42 15.6439H138.004V13.6503ZM112.58 9.59275H110.915V12.3369H112.58C113.166 12.3369 113.565 12.1962 113.8 11.9382C114.011 11.6802 114.128 11.3518 114.128 10.9531C114.128 10.5544 114.011 10.226 113.8 9.96802C113.589 9.71002 113.19 9.59275 112.58 9.59275ZM138.004 9.59275H140.092C140.49 9.59275 140.748 9.68657 140.889 9.85075C141.03 10.0384 141.1 10.2495 141.1 10.5075C141.1 10.7655 141.03 10.9765 140.866 11.1407C140.702 11.3284 140.444 11.3987 140.092 11.3987H138.004V9.59275Z" fill="#00A75D"/>
</svg>
