<svg width="375" height="54" viewBox="0 0 375 54" fill="none" xmlns="http://www.w3.org/2000/svg">
<path fill-rule="evenodd" clip-rule="evenodd" d="M72.4542 23.1974C73.2751 23.1974 73.9553 22.5407 73.9553 21.7198C73.9553 20.8989 73.2751 20.2422 72.4542 20.2422C71.6333 20.2422 70.9532 20.8989 70.9532 21.7198C70.9532 22.5407 71.6099 23.1974 72.4542 23.1974ZM69.3583 24.0887H66.5203V21.5087L64.1046 21.5322V29.7411C64.1046 31.1015 64.4095 32.0162 64.9958 32.5322C65.5822 33.0247 66.3093 33.2827 67.1771 33.2827H69.3348V31.2187H67.5992C67.1301 31.2187 66.4969 31.078 66.4969 29.8584V26.223H69.3348V24.0887H69.3583ZM57.9596 23.7838C58.8743 23.7838 59.6952 23.9949 60.4223 24.4405C61.1493 24.8627 61.7357 25.4725 62.1344 26.1995C62.5566 26.9266 62.7442 27.7475 62.7442 28.6388C62.7442 29.53 62.5331 30.3509 62.1344 31.078C61.7122 31.8051 61.1493 32.4149 60.4223 32.8371C59.6952 33.2592 58.8508 33.4938 57.9596 33.4938C57.0683 33.4938 56.2474 33.2827 55.5203 32.8371C54.7933 32.4149 54.2069 31.8051 53.8082 31.078C53.386 30.3509 53.1984 29.53 53.1984 28.6388C53.1984 27.771 53.4095 26.9501 53.8082 26.1995C54.2304 25.4725 54.7933 24.8627 55.5203 24.4405C56.224 23.9949 57.0449 23.7838 57.9596 23.7838ZM57.983 31.1718C58.4287 31.1718 58.8508 31.0546 59.2026 30.8435C59.5545 30.6324 59.8594 30.3275 60.0704 29.9288C60.2815 29.53 60.3754 29.0844 60.3754 28.5919C60.3754 28.0993 60.2581 27.6537 60.0704 27.255C59.8594 26.8563 59.5779 26.5514 59.2026 26.3403C58.8508 26.1292 58.4287 26.0119 57.983 26.0119C57.5374 26.0119 57.1152 26.1292 56.7634 26.3403C56.3881 26.5514 56.1067 26.8797 55.8956 27.255C55.6845 27.6537 55.5907 28.0759 55.5907 28.5919C55.5907 29.0844 55.708 29.53 55.8956 29.9288C56.1067 30.304 56.3881 30.6324 56.7634 30.8435C57.1152 31.078 57.5139 31.1718 57.983 31.1718ZM73.6504 24.0887H71.2346V33.2358H73.6504V24.0887ZM89.1301 33.2592H86.7613V27.9117C86.7613 27.3488 86.6206 26.8797 86.3391 26.5748C86.0577 26.2699 85.6824 26.1057 85.1664 26.1057C84.6739 26.1057 84.2986 26.2699 84.0171 26.5748C83.7357 26.8797 83.595 27.3488 83.595 27.9117V33.2592H81.2026V27.9117C81.2026 27.3488 81.0619 26.8797 80.7805 26.5748C80.499 26.2699 80.1238 26.1057 79.6078 26.1057C79.0918 26.1057 78.74 26.2699 78.4585 26.5748C78.1771 26.8797 78.0363 27.3488 78.0363 27.9117V33.2592H75.6675V27.9117C75.6675 26.6686 75.9958 25.6836 76.676 24.9799C77.3562 24.2763 78.3412 23.9245 79.6312 23.9245C81.0619 23.9245 81.9532 24.6281 82.2112 24.8392L82.4457 25.0503L82.7272 24.8392C83.4073 24.2998 84.322 23.9479 85.1899 23.9245C86.4564 23.901 87.4884 24.2763 88.1685 25.0268C88.8252 25.7305 89.1536 26.7155 89.1536 27.9352V33.2592H89.1301ZM50.6888 26.7624C51.3924 26.1526 51.7677 25.2848 51.7677 24.2998C51.7677 22.3062 50.1259 20.7582 48.0619 20.7582H42.6909V33.2592H48.789C50.3604 33.2592 51.7208 32.2038 52.096 30.7027C52.5417 29.014 52.0022 27.5599 50.6888 26.7624ZM45.0363 22.9863V25.8243H48.0854C48.8828 25.8243 49.4692 25.2145 49.4692 24.3936C49.4692 23.5727 48.8828 22.9629 48.0854 22.9629H45.0363V22.9863ZM48.4606 31.0311C49.305 31.0311 49.9148 30.3744 49.9148 29.5066C49.9148 28.6388 49.2815 27.9821 48.4606 27.9821H45.0363V31.0311H48.4606Z" fill="#010201"/>
<path d="M32.2537 16.2793H21.0661C18.2751 16.2793 16 18.5544 16 21.3688V32.6034C16 35.4179 18.2751 37.6929 21.0661 37.6929H32.2772C35.0682 37.6929 37.3433 35.4179 37.3433 32.6034V21.3923C37.3433 18.5778 35.0682 16.2793 32.2537 16.2793Z" fill="#4FB1F3"/>
<path d="M28.4306 35.0446H25.8038C22.356 35.0446 19.5415 32.2301 19.5415 28.7589V20.8079C19.5415 19.8228 20.3389 19.0254 21.324 19.0254C22.3091 19.0254 23.1065 19.8228 23.1065 20.8079V28.7589C23.1065 30.2599 24.3262 31.4561 25.8038 31.4561H28.4306C29.9082 31.4561 31.1279 30.2599 31.1279 28.7823C31.1279 27.3047 29.9082 26.1085 28.4306 26.1085H26.7419C25.7569 26.1085 24.9594 25.3111 24.9594 24.326C24.9594 23.341 25.7569 22.5435 26.7419 22.5435H28.4072C31.8549 22.5435 34.6694 25.358 34.6694 28.8058C34.6929 32.2535 31.8784 35.0446 28.4306 35.0446Z" fill="white" fill-opacity="0.45"/>
<path d="M21.3475 22.5416C22.3325 22.5416 23.13 21.7442 23.13 20.7591C23.13 19.774 22.3325 18.9766 21.3475 18.9766C20.3624 18.9766 19.5649 19.774 19.5649 20.7591C19.5649 21.7442 20.3624 22.5416 21.3475 22.5416Z" fill="white"/>
<path d="M26.6717 26.108C27.6568 26.108 28.4542 25.3106 28.4542 24.3255C28.4542 23.3404 27.6568 22.543 26.6717 22.543C25.6866 22.543 24.8892 23.3404 24.8892 24.3255C24.8892 25.3106 25.6866 26.108 26.6717 26.108Z" fill="white"/>
<path d="M98.6994 28.0093L101.232 25.4997C101.35 25.3825 101.397 25.2417 101.397 25.0776C101.397 24.9134 101.326 24.7727 101.232 24.6554C101.115 24.5381 100.974 24.4912 100.81 24.4912C100.646 24.4912 100.505 24.5616 100.388 24.6554L97.8785 27.1884L95.3689 24.6554C95.2516 24.5381 95.1109 24.4912 94.9467 24.4912C94.7825 24.4912 94.6418 24.5616 94.5245 24.6554C94.4073 24.7727 94.3604 24.9134 94.3604 25.0776C94.3604 25.2417 94.4307 25.3825 94.5245 25.4997L97.0576 28.0093L94.5245 30.5189C94.4776 30.5658 94.4307 30.6362 94.4073 30.7066C94.3838 30.7769 94.3604 30.8473 94.3604 30.9411C94.3604 31.0349 94.3838 31.1053 94.4073 31.1756C94.4307 31.246 94.4776 31.3164 94.5245 31.3633C94.5714 31.4102 94.6418 31.4571 94.7122 31.4805C94.7825 31.504 94.8529 31.5275 94.9467 31.5275C95.0171 31.5275 95.1109 31.504 95.1812 31.4805C95.2516 31.4571 95.322 31.4102 95.3689 31.3633L97.8785 28.8302L100.388 31.3633C100.435 31.4102 100.505 31.4571 100.576 31.4805C100.646 31.504 100.716 31.5275 100.81 31.5275C100.881 31.5275 100.974 31.504 101.045 31.4805C101.115 31.4571 101.186 31.4102 101.232 31.3633C101.279 31.3164 101.326 31.246 101.35 31.1756C101.373 31.1053 101.397 31.0349 101.397 30.9411C101.397 30.8473 101.373 30.7769 101.35 30.7066C101.326 30.6362 101.279 30.5658 101.232 30.5189L98.6994 28.0093Z" fill="#80868B"/>
<path fill-rule="evenodd" clip-rule="evenodd" d="M113.968 16V34.177H110.825V19.1429L113.968 16ZM159 23.8806C158.461 23.3177 157.64 23.0597 156.537 23.0597H151.237V34.2004H156.983C157.546 34.2004 158.038 34.1301 158.461 33.9659C158.883 33.8017 159.235 33.5906 159.516 33.3326C159.798 33.0512 160.009 32.7463 160.149 32.371C160.29 31.9957 160.36 31.597 160.36 31.1514C160.36 30.4947 160.196 29.9318 159.868 29.4627C159.54 28.9936 159.094 28.6418 158.484 28.4307V28.4073C158.906 28.1727 159.258 27.8678 159.493 27.4456C159.727 27.0235 159.844 26.5544 159.844 26.0149C159.821 25.1237 159.54 24.42 159 23.8806ZM137.469 25.5458C138.126 25.5458 138.736 25.6397 139.299 25.8507C139.861 26.0618 140.331 26.3667 140.729 26.7655C141.128 27.1642 141.433 27.6333 141.644 28.1962C141.855 28.7591 141.972 29.3689 141.972 30.0725V34.2004H139.627V32.887H139.603C139.392 33.3561 139.064 33.7313 138.618 34.0128C138.173 34.2942 137.633 34.435 137 34.435C136.554 34.435 136.085 34.3412 135.616 34.177C135.147 34.0128 134.702 33.7313 134.303 33.3795C133.904 33.0277 133.576 32.5586 133.341 31.9957C133.083 31.4328 132.966 30.7761 132.966 29.9787C132.966 29.3454 133.083 28.7591 133.294 28.1962C133.505 27.6567 133.834 27.1876 134.232 26.7889C134.631 26.3902 135.124 26.0853 135.663 25.8742C136.203 25.6631 136.812 25.5458 137.469 25.5458ZM163.339 30.0021V25.7804H160.783V30.0021C160.783 30.7761 160.9 31.4328 161.111 31.9723C161.322 32.5117 161.603 32.9574 161.955 33.2857C162.307 33.6375 162.706 33.8721 163.128 34.0362C163.574 34.2004 163.996 34.2708 164.441 34.2708C164.887 34.2708 165.286 34.177 165.638 33.9893C165.989 33.8017 166.271 33.5437 166.505 33.2154H166.529V33.9893C166.529 34.6461 166.412 35.0917 166.154 35.3731C165.896 35.6546 165.497 35.7953 164.911 35.7953C164.512 35.7953 164.183 35.7249 163.949 35.6077C163.714 35.4904 163.527 35.2793 163.409 34.9979H160.853C160.947 35.5139 161.134 35.9595 161.392 36.3348C161.65 36.71 161.955 37.0149 162.307 37.2729C162.659 37.5075 163.058 37.6951 163.527 37.8124C163.972 37.9296 164.441 38 164.957 38C165.544 38 166.083 37.9296 166.576 37.7655C167.092 37.6013 167.514 37.3667 167.889 37.0384C168.264 36.71 168.569 36.2878 168.78 35.7719C168.992 35.2559 169.109 34.6226 169.109 33.8955V25.7569H166.552V29.9787C166.552 30.6354 166.412 31.1045 166.107 31.4094C165.802 31.7143 165.427 31.8785 164.957 31.8785C164.488 31.8785 164.09 31.7377 163.808 31.4328C163.503 31.1514 163.339 30.6589 163.339 30.0021ZM144.998 30.0021V25.7804H142.441V30.0021C142.441 30.7761 142.559 31.4328 142.77 31.9723C142.981 32.5117 143.262 32.9574 143.614 33.2857C143.966 33.6375 144.365 33.8721 144.787 34.0362C145.232 34.2004 145.655 34.2708 146.1 34.2708C146.546 34.2708 146.945 34.177 147.296 33.9893C147.648 33.8017 147.93 33.5437 148.164 33.2154H148.188V33.9893C148.188 34.6461 148.07 35.0917 147.812 35.3731C147.554 35.6546 147.156 35.7953 146.569 35.7953C146.171 35.7953 145.842 35.7249 145.608 35.6077C145.373 35.4904 145.186 35.2793 145.068 34.9979H142.512C142.606 35.5139 142.793 35.9595 143.051 36.3348C143.309 36.71 143.614 37.0149 143.966 37.2729C144.318 37.5075 144.717 37.6951 145.186 37.8124C145.631 37.9296 146.1 38 146.616 38C147.203 38 147.742 37.9296 148.235 37.7655C148.751 37.6013 149.173 37.3667 149.548 37.0384C149.923 36.71 150.228 36.2878 150.439 35.7719C150.65 35.2559 150.768 34.6226 150.768 33.8955V25.7804H148.211V30.0021C148.211 30.6589 148.07 31.1279 147.766 31.4328C147.461 31.7377 147.085 31.9019 146.616 31.9019C146.147 31.9019 145.748 31.7612 145.467 31.4563C145.162 31.1514 144.998 30.6589 144.998 30.0021ZM109.77 34.177V20.3156L106.627 23.4584V34.177H109.77ZM118.166 20.3156V34.177H115.024V23.4819L118.166 20.3156ZM130.503 23.3177C129.964 23.1301 129.307 23.0362 128.533 23.0362H124.147V34.177H126.915V30.8934H128.533C129.284 30.8934 129.94 30.7996 130.503 30.5885C131.043 30.4009 131.512 30.1194 131.864 29.7676C132.215 29.4158 132.497 29.0171 132.661 28.5245C132.825 28.032 132.919 27.516 132.919 26.9531C132.919 26.3902 132.825 25.8507 132.661 25.3817C132.497 24.9126 132.215 24.4904 131.864 24.1386C131.512 23.7868 131.066 23.5053 130.503 23.3177ZM137.493 27.9382C136.906 27.9382 136.437 28.1258 136.085 28.5011C135.734 28.8763 135.546 29.3689 135.546 29.9787C135.546 30.5885 135.734 31.081 136.085 31.4563C136.437 31.8316 136.906 32.0192 137.493 32.0192C138.079 32.0192 138.548 31.8316 138.9 31.4563C139.252 31.081 139.439 30.5885 139.439 29.9787C139.439 29.3689 139.252 28.8763 138.9 28.5011C138.525 28.1258 138.056 27.9382 137.493 27.9382ZM154.004 29.6503H156.42C156.772 29.6503 157.053 29.7441 157.241 29.9552C157.429 30.1429 157.499 30.4009 157.499 30.6588C157.499 30.9403 157.429 31.1748 157.264 31.3625C157.1 31.5501 156.819 31.6439 156.42 31.6439H154.004V29.6503ZM128.58 25.5928H126.915V28.3369H128.58C129.166 28.3369 129.565 28.1962 129.8 27.9382C130.011 27.6802 130.128 27.3518 130.128 26.9531C130.128 26.5544 130.011 26.226 129.8 25.968C129.589 25.71 129.19 25.5928 128.58 25.5928ZM154.004 25.5928H156.092C156.49 25.5928 156.748 25.6866 156.889 25.8507C157.03 26.0384 157.1 26.2495 157.1 26.5075C157.1 26.7655 157.03 26.9765 156.866 27.1407C156.702 27.3284 156.444 27.3987 156.092 27.3987H154.004V25.5928Z" fill="#00A75D"/>
<path d="M274.286 33.0713V32.7544H274.417V32.6923H274.093V32.7544H274.224V33.0713H274.292H274.286ZM274.915 33.0713V32.6923H274.816L274.703 32.9532L274.591 32.6923H274.492V33.0713H274.56V32.7855L274.666 33.034H274.741L274.847 32.7855V33.0713H274.915Z" fill="white"/>
<path d="M265.369 17.2039C263.076 17.2039 260.97 17.9931 259.3 19.3104C257.631 17.9993 255.524 17.2039 253.231 17.2039C247.804 17.2039 243.405 21.5908 243.405 27.003C243.405 32.4152 247.798 36.7959 253.225 36.7959C255.518 36.7959 257.624 36.0068 259.294 34.6894C260.97 36.0068 263.076 36.7959 265.369 36.7959C270.797 36.7959 275.196 32.409 275.196 26.9968C275.196 21.5846 270.797 17.1977 265.369 17.1977V17.2039Z" fill="white"/>
<path d="M255.543 27.0011C255.543 23.8755 257.014 21.0918 259.294 19.296C257.624 17.9849 255.512 17.202 253.225 17.202C247.798 17.202 243.399 21.5889 243.399 27.0011C243.399 32.4132 247.798 36.7939 253.225 36.7939C255.518 36.7939 257.624 36.011 259.294 34.6999C257.007 32.9041 255.543 30.1204 255.543 26.9949V27.0011Z" fill="#DF1612" stroke="#DF1612" stroke-width="0.25" stroke-miterlimit="10"/>
<path d="M275.195 27.0036C275.195 32.4158 270.796 36.8027 265.369 36.8027C263.076 36.8027 260.97 36.0198 259.3 34.7087C261.587 32.9129 263.051 30.1292 263.051 27.0036C263.051 23.8781 261.587 21.0944 259.3 19.2986C260.97 17.9875 263.082 17.2046 265.369 17.2046C270.796 17.2046 275.195 21.5915 275.195 27.0036Z" fill="#F59E00" stroke="#F59E00" stroke-width="0.25" stroke-miterlimit="10"/>
<path d="M263.593 19.2979H254.995V34.7017H263.593V19.2979Z" fill="#F8C4AE"/>
<path d="M255.543 27.003C255.543 23.8775 257.014 21.0937 259.294 19.298C257.624 17.9869 255.512 17.2039 253.225 17.2039C247.798 17.2039 243.399 21.5908 243.399 27.003C243.399 32.4152 247.798 36.7959 253.225 36.7959C255.518 36.7959 257.624 36.013 259.294 34.7019C257.007 32.9061 255.543 30.1223 255.543 26.9968V27.003Z" fill="#DF1612"/>
<path d="M275.195 27.0036C275.195 32.4158 270.796 36.8027 265.369 36.8027C263.076 36.8027 260.97 36.0198 259.3 34.7087C261.587 32.9129 263.051 30.1292 263.051 27.0036C263.051 23.8781 261.587 21.0944 259.3 19.2986C260.97 17.9875 263.082 17.2046 265.369 17.2046C270.796 17.2046 275.195 21.5915 275.195 27.0036Z" fill="#F59E00"/>
<g style="mix-blend-mode:multiply">
<path d="M263.051 27.0049C263.051 23.8794 261.587 21.0956 259.3 19.2998C257.014 21.0956 255.549 23.8794 255.549 27.0049C255.549 30.1304 257.02 32.9142 259.3 34.71C261.587 32.9142 263.051 30.1304 263.051 27.0049Z" fill="#F59E00" stroke="#F59E00" stroke-width="0.25" stroke-miterlimit="10"/>
</g>
<path d="M284.399 17.1973V36.1973" stroke="black" stroke-linecap="round"/>
<path d="M294.967 33.1977H293.735V21.9977H294.967V33.1977Z" fill="#2A2B2F"/>
<path d="M302.233 21.9977C303.06 21.9977 303.799 22.1257 304.449 22.3817C305.105 22.6377 305.66 23.0084 306.113 23.4937C306.572 23.9737 306.921 24.5604 307.161 25.2537C307.407 25.9471 307.529 26.7284 307.529 27.5977C307.529 28.4671 307.407 29.2484 307.161 29.9417C306.921 30.6351 306.572 31.2244 306.113 31.7097C305.66 32.1897 305.105 32.5577 304.449 32.8137C303.799 33.0697 303.06 33.1977 302.233 33.1977H298.585V21.9977H302.233ZM302.225 32.0377C302.887 32.0377 303.468 31.9364 303.969 31.7337C304.471 31.5257 304.889 31.2324 305.225 30.8537C305.567 30.4697 305.823 30.0031 305.993 29.4537C306.164 28.9044 306.249 28.2857 306.249 27.5977C306.249 26.9097 306.164 26.2911 305.993 25.7417C305.823 25.1924 305.567 24.7257 305.225 24.3417C304.889 23.9577 304.471 23.6644 303.969 23.4617C303.468 23.2591 302.887 23.1577 302.225 23.1577H299.817V32.0377H302.225Z" fill="#2A2B2F"/>
<path d="M319.704 21.8617C320.142 21.8617 320.56 21.9177 320.96 22.0297C321.366 22.1364 321.739 22.2911 322.08 22.4937C322.427 22.6964 322.736 22.9471 323.008 23.2457C323.286 23.5444 323.518 23.8804 323.704 24.2537L322.656 24.8537C322.352 24.2831 321.944 23.8431 321.432 23.5337C320.92 23.2191 320.344 23.0617 319.704 23.0617C319.171 23.0617 318.678 23.1657 318.224 23.3737C317.776 23.5817 317.387 23.8804 317.056 24.2697C316.726 24.6591 316.467 25.1337 316.28 25.6937C316.094 26.2537 316 26.8884 316 27.5977C316 28.3124 316.094 28.9497 316.28 29.5097C316.467 30.0697 316.726 30.5444 317.056 30.9337C317.387 31.3231 317.779 31.6217 318.232 31.8297C318.686 32.0324 319.176 32.1337 319.704 32.1337C320.344 32.1337 320.918 31.9791 321.424 31.6697C321.936 31.3604 322.347 30.9204 322.656 30.3497L323.68 30.9817C323.488 31.3497 323.254 31.6804 322.976 31.9737C322.704 32.2617 322.398 32.5071 322.056 32.7097C321.715 32.9071 321.347 33.0591 320.952 33.1657C320.558 33.2724 320.142 33.3257 319.704 33.3257C318.974 33.3257 318.302 33.1924 317.688 32.9257C317.08 32.6537 316.555 32.2697 316.112 31.7737C315.675 31.2777 315.334 30.6777 315.088 29.9737C314.843 29.2644 314.72 28.4724 314.72 27.5977C314.72 26.7231 314.843 25.9337 315.088 25.2297C315.334 24.5204 315.675 23.9177 316.112 23.4217C316.555 22.9204 317.08 22.5364 317.688 22.2697C318.302 21.9977 318.974 21.8617 319.704 21.8617Z" fill="#2A2B2F"/>
<path d="M329.948 25.4697C330.354 25.4697 330.724 25.5337 331.06 25.6617C331.396 25.7897 331.684 25.9737 331.924 26.2137C332.164 26.4537 332.348 26.7444 332.476 27.0857C332.61 27.4271 332.676 27.8084 332.676 28.2297V33.1977H331.532V28.5577C331.532 27.9284 331.364 27.4404 331.028 27.0937C330.698 26.7417 330.234 26.5657 329.636 26.5657C329.359 26.5657 329.1 26.6137 328.86 26.7097C328.62 26.8057 328.41 26.9444 328.228 27.1257C328.052 27.3017 327.914 27.5151 327.812 27.7657C327.711 28.0164 327.66 28.2964 327.66 28.6057V33.1977H326.516V21.6777H327.66V26.5417C327.932 26.1684 328.268 25.8964 328.668 25.7257C329.074 25.5551 329.5 25.4697 329.948 25.4697Z" fill="#2A2B2F"/>
<path d="M341.978 29.3897C341.978 29.5444 341.97 29.6857 341.954 29.8137H336.594C336.626 30.2244 336.706 30.5844 336.834 30.8937C336.967 31.2031 337.135 31.4617 337.338 31.6697C337.546 31.8777 337.786 32.0351 338.058 32.1417C338.33 32.2431 338.626 32.2937 338.946 32.2937C339.378 32.2937 339.767 32.2137 340.114 32.0537C340.466 31.8884 340.781 31.6697 341.058 31.3977L341.674 32.1897C341.466 32.4031 341.25 32.5817 341.026 32.7257C340.802 32.8697 340.573 32.9871 340.338 33.0777C340.103 33.1631 339.863 33.2244 339.618 33.2617C339.373 33.3044 339.122 33.3257 338.866 33.3257C338.349 33.3257 337.877 33.2351 337.45 33.0537C337.029 32.8724 336.666 32.6111 336.362 32.2697C336.058 31.9284 335.823 31.5177 335.658 31.0377C335.493 30.5524 335.41 30.0084 335.41 29.4057C335.41 28.8084 335.493 28.2671 335.658 27.7817C335.823 27.2964 336.053 26.8831 336.346 26.5417C336.645 26.2004 336.999 25.9364 337.41 25.7497C337.826 25.5631 338.282 25.4697 338.778 25.4697C339.247 25.4697 339.677 25.5631 340.066 25.7497C340.461 25.9311 340.799 26.1924 341.082 26.5337C341.365 26.8751 341.583 27.2884 341.738 27.7737C341.898 28.2537 341.978 28.7924 341.978 29.3897ZM340.81 28.8537C340.783 28.4964 340.714 28.1737 340.602 27.8857C340.495 27.5977 340.351 27.3524 340.17 27.1497C339.994 26.9471 339.786 26.7897 339.546 26.6777C339.311 26.5657 339.05 26.5097 338.762 26.5097C338.458 26.5097 338.181 26.5657 337.93 26.6777C337.685 26.7844 337.469 26.9391 337.282 27.1417C337.101 27.3444 336.951 27.5897 336.834 27.8777C336.722 28.1657 336.647 28.4911 336.61 28.8537H340.81Z" fill="#2A2B2F"/>
<path d="M347.756 25.4697C348.273 25.4697 348.748 25.5737 349.18 25.7817C349.612 25.9844 349.977 26.2777 350.276 26.6617L349.516 27.3977C349.276 27.1311 349.009 26.9257 348.716 26.7817C348.428 26.6377 348.105 26.5657 347.748 26.5657C347.417 26.5657 347.113 26.6324 346.836 26.7657C346.559 26.8937 346.316 27.0804 346.108 27.3257C345.905 27.5711 345.745 27.8697 345.628 28.2217C345.516 28.5684 345.46 28.9604 345.46 29.3977C345.46 29.8351 345.516 30.2297 345.628 30.5817C345.745 30.9284 345.905 31.2244 346.108 31.4697C346.316 31.7151 346.559 31.9044 346.836 32.0377C347.113 32.1711 347.417 32.2377 347.748 32.2377C348.105 32.2377 348.433 32.1631 348.732 32.0137C349.036 31.8591 349.303 31.6537 349.532 31.3977L350.276 32.1337C349.972 32.5177 349.604 32.8137 349.172 33.0217C348.745 33.2244 348.273 33.3257 347.756 33.3257C347.239 33.3257 346.767 33.2324 346.34 33.0457C345.913 32.8537 345.548 32.5844 345.244 32.2377C344.94 31.8911 344.705 31.4777 344.54 30.9977C344.375 30.5177 344.292 29.9844 344.292 29.3977C344.292 28.8164 344.375 28.2857 344.54 27.8057C344.705 27.3204 344.94 26.9044 345.244 26.5577C345.548 26.2111 345.913 25.9444 346.34 25.7577C346.767 25.5657 347.239 25.4697 347.756 25.4697Z" fill="#2A2B2F"/>
<path d="M355.008 29.7577H354.056V33.1977H352.912V21.6777H354.056V28.6777H355.024L357.544 25.6057H358.944L355.92 29.1897L359 33.1977H357.6L355.008 29.7577Z" fill="#2A2B2F"/>
</svg>
